<svg xmlns="http://www.w3.org/2000/svg" width="12.371" height="12.373" viewBox="0 0 12.371 12.373"><defs><style>.a{fill:#ff7525;}</style></defs><path class="a" d="M19.411,11.981H12.819a1.135,1.135,0,0,0-1.133,1.133V17.7a1.132,1.132,0,0,0,1.133,1.13h3.772a.325.325,0,0,1,.226.1l1.874,1.728c.1.1.277.059.277-.086V19.066c0-.178.113-.235.292-.235h.03a1.238,1.238,0,0,0,1.252-1.13V13.115A1.129,1.129,0,0,0,19.411,11.981Z" transform="translate(-8.17 -8.34)"/><path class="a" d="M7.135,6.287h5.277V4.345a.97.97,0,0,0-.97-.97h-7.1a.97.97,0,0,0-.97.97V9.259a.97.97,0,0,0,.97.97H6.162V7.257A.974.974,0,0,1,7.135,6.287Z" transform="translate(-3.375 -3.375)"/></svg>