<svg xmlns="http://www.w3.org/2000/svg" width="20.731" height="20.731" viewBox="0 0 20.731 20.731">
  <path id="Icon_metro-cross" data-name="Icon metro-cross" d="M23.113,18.583h0l-6.289-6.289L23.112,6h0a.649.649,0,0,0,0-.916L20.141,2.117a.65.65,0,0,0-.916,0h0L12.936,8.406,6.647,2.117h0a.649.649,0,0,0-.916,0L2.76,5.088A.649.649,0,0,0,2.76,6h0l6.289,6.289L2.76,18.583h0a.649.649,0,0,0,0,.916L5.731,22.47a.649.649,0,0,0,.916,0h0l6.289-6.289,6.289,6.289h0a.649.649,0,0,0,.916,0L23.112,19.5a.649.649,0,0,0,0-.916Z" transform="translate(-2.571 -1.928)" fill="#404040"/>
</svg>
