<svg xmlns="http://www.w3.org/2000/svg" width="8.568" height="8.569" viewBox="0 0 8.568 8.569"><defs><style>.a{fill:#ff7525;}</style></defs><path class="a" d="M3.656,11.951a.274.274,0,0,0,.2-.082l.923-.923.762.762a.278.278,0,0,0,.2.082.274.274,0,0,0,.2-.082.28.28,0,0,0,0-.4l-.762-.762L6.2,9.52a3.483,3.483,0,1,0-.4-.4l-1.03,1.03-.762-.762a.278.278,0,0,0-.2-.082.274.274,0,0,0-.2.082.28.28,0,0,0,0,.4l.762.762-.923.923a.28.28,0,0,0,.2.478ZM6.395,4.8A2.922,2.922,0,1,1,5.54,6.864,2.908,2.908,0,0,1,6.395,4.8Z" transform="translate(-3.377 -3.382)"/></svg>