<?xml version="1.0" encoding="UTF-8"?>
<svg xmlns="http://www.w3.org/2000/svg" xmlns:xlink="http://www.w3.org/1999/xlink" width="48pt" height="48pt" viewBox="0 0 48 48" version="1.1">
<g id="surface3202107">
<path style=" stroke:none;fill-rule:nonzero;fill:rgb(100%,100%,100%);fill-opacity:1;" d="M 15 7 C 8.941406 7 4 11.941406 4 18 C 4 22.097656 7.085938 25.953125 10.851562 29.90625 C 14.617188 33.863281 19.25 37.871094 22.9375 41.558594 C 23.523438 42.144531 24.476562 42.144531 25.058594 41.558594 C 28.75 37.871094 33.382812 33.863281 37.148438 29.90625 C 40.914062 25.953125 44 22.097656 44 18 C 44 11.941406 39.058594 7 33 7 C 29.523438 7 26.496094 8.867188 24 12.035156 C 21.503906 8.867188 18.476562 7 15 7 Z M 15 7 "/>
</g>
</svg>
