<svg xmlns="http://www.w3.org/2000/svg" width="23.575" height="23.575" viewBox="0 0 23.575 23.575">
  <path id="Icon_awesome-music" data-name="Icon awesome-music" d="M23.574,1.474a1.472,1.472,0,0,0-1.915-1.4L6.925,4.42a1.473,1.473,0,0,0-1.031,1.4V17.861a6.37,6.37,0,0,0-1.473-.18C1.979,17.681,0,19,0,20.628s1.979,2.947,4.42,2.947,4.42-1.319,4.42-2.947V9.868L20.628,6.413v8.5a6.37,6.37,0,0,0-1.473-.18c-2.441,0-4.42,1.319-4.42,2.947s1.979,2.947,4.42,2.947,4.42-1.319,4.42-2.947V1.474Z" transform="translate(0 0.001)" fill="#ff7525"/>
</svg>
