<svg xmlns="http://www.w3.org/2000/svg" width="9.637" height="9.639" viewBox="0 0 9.637 9.639"><defs><style>.a{fill:#ff7525;}</style></defs><path class="a" d="M13.341,9.318a1.24,1.24,0,0,1,.8-1.157,4.915,4.915,0,0,0-.595-1.433,1.257,1.257,0,0,1-.5.108,1.237,1.237,0,0,1-1.132-1.742,4.9,4.9,0,0,0-1.43-.595,1.239,1.239,0,0,1-2.314,0,4.915,4.915,0,0,0-1.433.595A1.237,1.237,0,0,1,5.6,6.836a1.216,1.216,0,0,1-.5-.108A5.024,5.024,0,0,0,4.5,8.164a1.24,1.24,0,0,1,0,2.314A4.915,4.915,0,0,0,5.1,11.911a1.238,1.238,0,0,1,1.634,1.634,4.944,4.944,0,0,0,1.433.595,1.237,1.237,0,0,1,2.309,0,4.915,4.915,0,0,0,1.433-.595,1.239,1.239,0,0,1,1.634-1.634,4.944,4.944,0,0,0,.595-1.433A1.246,1.246,0,0,1,13.341,9.318Zm-4,2.005a2.008,2.008,0,1,1,2.008-2.008A2.007,2.007,0,0,1,9.341,11.324Z" transform="translate(-4.5 -4.5)"/></svg>