<svg id="svg8" xmlns="http://www.w3.org/2000/svg" xmlns:xlink="http://www.w3.org/1999/xlink" viewBox="0 0 522.64 154.44"><defs><style>.cls-1{fill:#5b5b5b;}.cls-2{fill:url(#linear-gradient);}.cls-3{fill:url(#linear-gradient-2);}.cls-4{fill:url(#linear-gradient-3);}</style><linearGradient id="linear-gradient" x1="-1117.79" y1="1029.57" x2="-1107.51" y2="1052.41" gradientTransform="translate(-3422.32 3346.04) rotate(180) scale(3.14)" gradientUnits="userSpaceOnUse"><stop offset="0" stop-color="#ff7525"/><stop offset="1" stop-color="#fd5"/></linearGradient><linearGradient id="linear-gradient-2" x1="-544.42" y1="1029.57" x2="-534.14" y2="1052.41" gradientTransform="matrix(3.14, 0, 0, -3.14, 1848.35, 3345.73)" xlink:href="#linear-gradient"/><linearGradient id="linear-gradient-3" x1="-551.84" y1="1009.22" x2="-551.84" y2="1044.51" gradientTransform="matrix(3.14, 0, 0, -3.14, 1848.35, 3345.73)" gradientUnits="userSpaceOnUse"><stop offset="0" stop-color="#f6037b"/><stop offset="1" stop-color="#f95ba4"/></linearGradient></defs><title>SPOT Icon</title><g id="layer1"><path id="path1086" class="cls-1" d="M246.64,154a8.43,8.43,0,0,1-.64,3.34,7.53,7.53,0,0,1-1.77,2.56,7.91,7.91,0,0,1-2.73,1.63,10,10,0,0,1-3.48.58h-4.46a1.91,1.91,0,0,1-1.39-.56,2,2,0,0,1-.56-1.39V147.86a1.95,1.95,0,0,1,1.95-2H238a10,10,0,0,1,3.48.58,7.82,7.82,0,0,1,2.73,1.66,7.17,7.17,0,0,1,1.77,2.56A8.38,8.38,0,0,1,246.64,154Zm-3.53,0a5.62,5.62,0,0,0-.35-2,4.43,4.43,0,0,0-.94-1.64,4.5,4.5,0,0,0-1.61-1.07A5.78,5.78,0,0,0,238,149h-3v10.16h3a5.59,5.59,0,0,0,2.14-.39,5,5,0,0,0,1.61-1.1,4.76,4.76,0,0,0,1-1.63,5.52,5.52,0,0,0,.35-2Z" transform="translate(-29.74 -25.15)"/><path id="path1088" class="cls-1" d="M262.67,160.45a1.87,1.87,0,0,1-.51,1.26,1.65,1.65,0,0,1-1.34.59,1.92,1.92,0,0,1-1-.29,1.72,1.72,0,0,1-.66-.86l-.63-1.75h-7l-.66,1.75a1.7,1.7,0,0,1-.68.86,1.93,1.93,0,0,1-1,.29,1.74,1.74,0,0,1-1.34-.56,2,2,0,0,1-.48-1.29,1.62,1.62,0,0,1,.12-.66l4.75-12.2a2.77,2.77,0,0,1,1-1.32,3.22,3.22,0,0,1,3.37-.07,2.7,2.7,0,0,1,1.19,1.39l4.72,12.2a2.1,2.1,0,0,1,.12.66Zm-5.11-4.09-2.53-7-2.53,7Z" transform="translate(-29.74 -25.15)"/><path id="path1090" class="cls-1" d="M275.49,147.44a1.49,1.49,0,0,1-.44,1.08A1.43,1.43,0,0,1,274,149h-3.38v11.62a1.67,1.67,0,0,1-.51,1.22,1.72,1.72,0,0,1-1.25.51,1.65,1.65,0,0,1-1.21-.51,1.68,1.68,0,0,1-.52-1.22V149h-3.38a1.46,1.46,0,0,1-1.07-.43,1.6,1.6,0,0,1-.44-1.12,1.44,1.44,0,0,1,.44-1.05,1.46,1.46,0,0,1,1.07-.44H274a1.38,1.38,0,0,1,1.05.46,1.46,1.46,0,0,1,.44,1.07Z" transform="translate(-29.74 -25.15)"/><path id="path1092" class="cls-1" d="M281,160.59a1.65,1.65,0,0,1-.51,1.22,1.74,1.74,0,0,1-1.25.49,1.67,1.67,0,0,1-1.7-1.71V147.47a1.61,1.61,0,0,1,.51-1.2,1.68,1.68,0,0,1,1.24-.51,1.74,1.74,0,0,1,1.71,1.71Z" transform="translate(-29.74 -25.15)"/><path id="path1094" class="cls-1" d="M298.76,160.2a2.06,2.06,0,0,1-.17.81,2.18,2.18,0,0,1-.44.66,2.27,2.27,0,0,1-.68.46,2.2,2.2,0,0,1-.86.17,2.16,2.16,0,0,1-.95-.22,2.46,2.46,0,0,1-.78-.66l-7.2-9.86v9a1.63,1.63,0,0,1-.52,1.22,1.71,1.71,0,0,1-2.94-1.22V148a2,2,0,0,1,.17-.83,2.5,2.5,0,0,1,.46-.7,2.09,2.09,0,0,1,.73-.49,2.12,2.12,0,0,1,.9-.2,2.42,2.42,0,0,1,1.9,1l6.92,9.4v-8.64a1.61,1.61,0,0,1,.51-1.2,1.68,1.68,0,0,1,1.24-.51,1.74,1.74,0,0,1,1.71,1.71Z" transform="translate(-29.74 -25.15)"/><path id="path1096" class="cls-1" d="M316.74,157.87a3.28,3.28,0,0,1-.63,2,5.11,5.11,0,0,1-1.61,1.44,7.61,7.61,0,0,1-2.21.87,9.88,9.88,0,0,1-5.83-.26,9,9,0,0,1-2.75-1.71,8,8,0,0,1-1.85-2.65,9.27,9.27,0,0,1,0-7,8,8,0,0,1,1.85-2.65,8.52,8.52,0,0,1,2.75-1.68,9.67,9.67,0,0,1,3.37-.59,7.78,7.78,0,0,1,3.38.68A7.94,7.94,0,0,1,315.6,148a1.42,1.42,0,0,1,.29.51,1.32,1.32,0,0,1,.12.54,1.43,1.43,0,0,1-.51,1.09,1.57,1.57,0,0,1-1.12.46,1.61,1.61,0,0,1-1.17-.48,5,5,0,0,0-1.58-1.05,4.42,4.42,0,0,0-1.8-.39,5.14,5.14,0,0,0-2.05.41,4.77,4.77,0,0,0-1.61,1.12,5.42,5.42,0,0,0-1.07,1.68,6.09,6.09,0,0,0-.36,2.12,6.3,6.3,0,0,0,.36,2.15,5,5,0,0,0,2.68,2.8,5.31,5.31,0,0,0,2.05.39,6,6,0,0,0,1-.1,9.34,9.34,0,0,0,1-.29,5.71,5.71,0,0,0,.82-.39,4.19,4.19,0,0,0,.61-.47v-1.94h-2.94a1.45,1.45,0,0,1-1.07-.44,1.52,1.52,0,0,1-.42-1.1,1.39,1.39,0,0,1,.42-1,1.41,1.41,0,0,1,1.07-.44h4.45a2,2,0,0,1,1.95,2v2.75Z" transform="translate(-29.74 -25.15)"/><path id="path1098" class="cls-1" d="M340.77,154a8.43,8.43,0,0,1-.64,3.34,7.53,7.53,0,0,1-1.77,2.56,7.91,7.91,0,0,1-2.73,1.63,10,10,0,0,1-3.48.58h-4.46a1.91,1.91,0,0,1-1.39-.56,2,2,0,0,1-.56-1.39V147.86a1.95,1.95,0,0,1,1.95-2h4.46a10,10,0,0,1,3.48.58,7.82,7.82,0,0,1,2.73,1.66,7.17,7.17,0,0,1,1.77,2.56A8.38,8.38,0,0,1,340.77,154Zm-3.53,0a5.85,5.85,0,0,0-.34-2,4.6,4.6,0,0,0-.95-1.64,4.5,4.5,0,0,0-1.61-1.07,5.74,5.74,0,0,0-2.19-.39H329.2v10.16h2.95a5.59,5.59,0,0,0,2.14-.39,5,5,0,0,0,1.61-1.1,4.78,4.78,0,0,0,1-1.63,5.75,5.75,0,0,0,.34-2Z" transform="translate(-29.74 -25.15)"/><path id="path1100" class="cls-1" d="M359.44,154a9,9,0,0,1-.63,3.39,7.83,7.83,0,0,1-1.78,2.65,8.11,8.11,0,0,1-2.68,1.76,9.75,9.75,0,0,1-6.79,0,8.45,8.45,0,0,1-2.71-1.76,8.06,8.06,0,0,1-1.75-2.65,9,9,0,0,1-.63-3.39,8.81,8.81,0,0,1,.63-3.36,8.09,8.09,0,0,1,1.75-2.68,8.22,8.22,0,0,1,2.71-1.73,9.46,9.46,0,0,1,6.79,0,7.84,7.84,0,0,1,4.46,4.41A8.81,8.81,0,0,1,359.44,154Zm-3.56,0a6.09,6.09,0,0,0-.36-2.12,4.91,4.91,0,0,0-1-1.68,4.22,4.22,0,0,0-1.56-1.12,4.86,4.86,0,0,0-2-.41,5,5,0,0,0-2,.41,4.23,4.23,0,0,0-1.54,1.12,5.63,5.63,0,0,0-1,1.68,6.78,6.78,0,0,0,0,4.24,5.39,5.39,0,0,0,1,1.68A4.47,4.47,0,0,0,348.9,159a4.83,4.83,0,0,0,2,.42,4.71,4.71,0,0,0,2-.42,4.46,4.46,0,0,0,1.56-1.12,4.72,4.72,0,0,0,1-1.68A6,6,0,0,0,355.88,154Z" transform="translate(-29.74 -25.15)"/><path id="path1102" class="cls-1" d="M376.43,160.2a2.06,2.06,0,0,1-.17.81,2,2,0,0,1-.44.66,2.17,2.17,0,0,1-2.48.41,2.26,2.26,0,0,1-.78-.66l-7.21-9.86v9a1.65,1.65,0,0,1-.51,1.22,1.72,1.72,0,0,1-1.24.49,1.67,1.67,0,0,1-1.71-1.71V148a2.12,2.12,0,0,1,.17-.83,2.74,2.74,0,0,1,.46-.7,2.18,2.18,0,0,1,.73-.49,2.13,2.13,0,0,1,.91-.2,2.19,2.19,0,0,1,1,.25,2.24,2.24,0,0,1,.86.7l6.91,9.4v-8.64a1.61,1.61,0,0,1,.51-1.2,1.71,1.71,0,0,1,1.25-.51,1.59,1.59,0,0,1,1.19.51,1.61,1.61,0,0,1,.51,1.2V160.2Z" transform="translate(-29.74 -25.15)"/><path id="path1104" class="cls-1" d="M391.27,160.59a1.55,1.55,0,0,1-.43,1.12,1.43,1.43,0,0,1-1,.44h-8.21a1.93,1.93,0,0,1-1.39-.56,2,2,0,0,1-.56-1.39V147.86a1.95,1.95,0,0,1,1.95-2h8.21a1.41,1.41,0,0,1,1,.46,1.46,1.46,0,0,1,.43,1.07,1.48,1.48,0,0,1-.43,1.08,1.46,1.46,0,0,1-1,.43h-6.7v3.44h6.53a1.38,1.38,0,0,1,1,.46,1.52,1.52,0,0,1,0,2.14,1.39,1.39,0,0,1-1,.44h-6.53v3.68h6.7a1.49,1.49,0,0,1,1.48,1.48Z" transform="translate(-29.74 -25.15)"/><path id="path1106" class="cls-1" d="M415.11,154a8.6,8.6,0,0,1-.63,3.34,7.56,7.56,0,0,1-1.78,2.56,7.91,7.91,0,0,1-2.73,1.63,9.93,9.93,0,0,1-3.48.58H402a1.91,1.91,0,0,1-1.94-2V147.86a1.85,1.85,0,0,1,.56-1.37,1.88,1.88,0,0,1,1.38-.58h4.46a9.93,9.93,0,0,1,3.48.58,7.82,7.82,0,0,1,2.73,1.66,7.19,7.19,0,0,1,1.78,2.56A8.55,8.55,0,0,1,415.11,154Zm-3.53,0a5.62,5.62,0,0,0-.34-2,4.21,4.21,0,0,0-2.56-2.71,5.71,5.71,0,0,0-2.19-.39h-2.95v10.16h2.95a5.55,5.55,0,0,0,2.14-.39,4.89,4.89,0,0,0,1.61-1.1,4.78,4.78,0,0,0,1-1.63,5.52,5.52,0,0,0,.34-2Z" transform="translate(-29.74 -25.15)"/><path id="path1108" class="cls-1" d="M421.05,160.59a1.65,1.65,0,0,1-.51,1.22,1.73,1.73,0,0,1-1.25.49,1.67,1.67,0,0,1-1.7-1.71V147.47a1.61,1.61,0,0,1,.51-1.2,1.7,1.7,0,0,1,1.24-.51,1.74,1.74,0,0,1,1.71,1.71Z" transform="translate(-29.74 -25.15)"/><path id="path1110" class="cls-1" d="M435.89,147.44a1.49,1.49,0,0,1-.44,1.08,1.43,1.43,0,0,1-1.05.43h-6.69v3.44h6.52a1.38,1.38,0,0,1,1,.46,1.52,1.52,0,0,1,0,2.14,1.4,1.4,0,0,1-1,.44h-6.52v5.16a1.65,1.65,0,0,1-.51,1.22,1.74,1.74,0,0,1-1.25.49,1.67,1.67,0,0,1-1.7-1.71V147.86a1.85,1.85,0,0,1,.56-1.37,1.89,1.89,0,0,1,1.39-.58h8.2a1.38,1.38,0,0,1,1.05.46,1.46,1.46,0,0,1,.44,1.07Z" transform="translate(-29.74 -25.15)"/><path id="path1112" class="cls-1" d="M449.78,147.44a1.49,1.49,0,0,1-.44,1.08,1.43,1.43,0,0,1-1,.43H441.6v3.44h6.52a1.38,1.38,0,0,1,1.05.46,1.52,1.52,0,0,1,0,2.14,1.4,1.4,0,0,1-1.05.44H441.6v5.16a1.66,1.66,0,0,1-.52,1.22,1.71,1.71,0,0,1-2.94-1.22V147.86a1.85,1.85,0,0,1,.56-1.37,1.89,1.89,0,0,1,1.39-.58h8.2a1.38,1.38,0,0,1,1,.46,1.46,1.46,0,0,1,.44,1.07Z" transform="translate(-29.74 -25.15)"/><path id="path1114" class="cls-1" d="M463.67,160.59a1.56,1.56,0,0,1-.44,1.12,1.4,1.4,0,0,1-1.05.44H454a1.91,1.91,0,0,1-1.94-2V147.86a1.85,1.85,0,0,1,.56-1.37,1.88,1.88,0,0,1,1.38-.58h8.21a1.38,1.38,0,0,1,1.05.46,1.46,1.46,0,0,1,.44,1.07,1.49,1.49,0,0,1-.44,1.08,1.43,1.43,0,0,1-1.05.43h-6.7v3.44H462a1.38,1.38,0,0,1,1.05.46,1.52,1.52,0,0,1,0,2.14,1.4,1.4,0,0,1-1.05.44h-6.53v3.68h6.7a1.4,1.4,0,0,1,1.05.44,1.43,1.43,0,0,1,.44,1Z" transform="translate(-29.74 -25.15)"/><path id="path1116" class="cls-1" d="M479.3,151.15a5.15,5.15,0,0,1-.32,1.9,4.42,4.42,0,0,1-.8,1.43,5,5,0,0,1-1.14,1,5,5,0,0,1-1.29.51l2.24,3.8a1.8,1.8,0,0,1,.22.82,1.73,1.73,0,0,1-.47,1.17,1.55,1.55,0,0,1-1.24.54,1.66,1.66,0,0,1-.85-.22,1.82,1.82,0,0,1-.63-.66l-2.78-5h-2.53v4.21a1.63,1.63,0,0,1-.52,1.22,1.71,1.71,0,0,1-2.94-1.22V147.86a1.85,1.85,0,0,1,.56-1.37,1.89,1.89,0,0,1,1.39-.58h5.65a6.15,6.15,0,0,1,2.26.39,4.75,4.75,0,0,1,1.73,1.1,4.6,4.6,0,0,1,1.07,1.68,5.37,5.37,0,0,1,.39,2.07Zm-6-2.2h-3.62v4.39h3.62a2.56,2.56,0,0,0,1.73-.59,2.17,2.17,0,0,0,0-3.21A2.56,2.56,0,0,0,473.33,149Z" transform="translate(-29.74 -25.15)"/><path id="path1118" class="cls-1" d="M493.54,160.59a1.56,1.56,0,0,1-.44,1.12,1.4,1.4,0,0,1-1.05.44h-8.2a1.91,1.91,0,0,1-2-2V147.86a1.85,1.85,0,0,1,.56-1.37,1.89,1.89,0,0,1,1.39-.58h8.2a1.38,1.38,0,0,1,1.05.46,1.46,1.46,0,0,1,.44,1.07,1.49,1.49,0,0,1-.44,1.08,1.43,1.43,0,0,1-1.05.43h-6.69v3.44h6.52a1.38,1.38,0,0,1,1.05.46,1.52,1.52,0,0,1,0,2.14,1.4,1.4,0,0,1-1.05.44h-6.52v3.68h6.69a1.4,1.4,0,0,1,1.05.44,1.43,1.43,0,0,1,.44,1Z" transform="translate(-29.74 -25.15)"/><path id="path1120" class="cls-1" d="M510.66,160.2a2.06,2.06,0,0,1-.17.81,2.18,2.18,0,0,1-.44.66,2.27,2.27,0,0,1-.68.46,2.2,2.2,0,0,1-.86.17,2.16,2.16,0,0,1-.95-.22,2.32,2.32,0,0,1-.77-.66l-7.21-9.86v9a1.65,1.65,0,0,1-.51,1.22,1.74,1.74,0,0,1-1.25.49,1.67,1.67,0,0,1-1.7-1.71V148a2.12,2.12,0,0,1,.17-.83,2.5,2.5,0,0,1,.46-.7,2.09,2.09,0,0,1,.73-.49,2.12,2.12,0,0,1,.9-.2,2.2,2.2,0,0,1,1.05.25,2.14,2.14,0,0,1,.85.7l6.92,9.4v-8.64a1.61,1.61,0,0,1,.51-1.2,1.7,1.7,0,0,1,1.24-.51,1.74,1.74,0,0,1,1.71,1.71Z" transform="translate(-29.74 -25.15)"/><path id="path1122" class="cls-1" d="M526,147.44a1.48,1.48,0,0,1-.43,1.08,1.46,1.46,0,0,1-1,.43h-3.39v11.62a1.74,1.74,0,0,1-3.48,0V149h-3.38a1.48,1.48,0,0,1-1.08-.43,1.59,1.59,0,0,1-.43-1.12,1.43,1.43,0,0,1,.43-1.05,1.49,1.49,0,0,1,1.08-.44h10.25a1.41,1.41,0,0,1,1,.46A1.46,1.46,0,0,1,526,147.44Z" transform="translate(-29.74 -25.15)"/><path id="path1124" class="cls-1" d="M538.51,160.59a1.56,1.56,0,0,1-.44,1.12,1.4,1.4,0,0,1-1.05.44h-7a1.93,1.93,0,0,1-1.39-.56,2,2,0,0,1-.56-1.39V147.47a1.62,1.62,0,0,1,.52-1.2,1.68,1.68,0,0,1,1.24-.51,1.57,1.57,0,0,1,1.19.51,1.61,1.61,0,0,1,.51,1.2v11.64H537a1.5,1.5,0,0,1,1.49,1.48Z" transform="translate(-29.74 -25.15)"/><path id="path1126" class="cls-1" d="M550.62,147.37a1.58,1.58,0,0,1-.24.85l-4.7,7.28v5.09a1.65,1.65,0,0,1-.51,1.22,1.73,1.73,0,0,1-1.25.49,1.67,1.67,0,0,1-1.7-1.71V155.5l-4.75-7.3a1.4,1.4,0,0,1-.24-.83,1.5,1.5,0,0,1,.46-1.07,1.54,1.54,0,0,1,1.19-.51,1.61,1.61,0,0,1,.78.19,1.64,1.64,0,0,1,.64.59l3.65,5.87,3.58-5.85a1.54,1.54,0,0,1,.61-.58,1.61,1.61,0,0,1,.83-.22,1.53,1.53,0,0,1,1.19.48,1.55,1.55,0,0,1,.46,1.1Z" transform="translate(-29.74 -25.15)"/><path id="path843" class="cls-2" d="M74.51,25.47a39.89,39.89,0,0,1,24.93,8.61A56.74,56.74,0,0,1,114,51.61V77.4a22.34,22.34,0,0,0,0,44.68v52.17a5.25,5.25,0,0,1-3.46-1.3c-7.27-6.36-14.27-12.32-20.45-17.58-36.34-31-60.36-51.44-60.36-81.35,0-27.68,19.25-48.55,44.77-48.55Z" transform="translate(-29.74 -25.15)"/><path id="path861" class="cls-3" d="M153.51,25.15a39.89,39.89,0,0,0-24.92,8.62A56.8,56.8,0,0,0,114,51.29v25.8a22.34,22.34,0,1,1,0,44.67v52.18a5.31,5.31,0,0,0,3.47-1.3c7.27-6.36,14.27-12.33,20.44-17.59,36.35-31,60.36-51.44,60.36-81.34,0-27.69-19.24-48.56-44.77-48.56Z" transform="translate(-29.74 -25.15)"/><path id="path879" class="cls-4" d="M114,57.8a42.74,42.74,0,0,0-42.72,42.72c0,16,10.65,35.75,21.27,51.48a274.89,274.89,0,0,0,21.22,27.49.32.32,0,0,0,.47,0A275.79,275.79,0,0,0,135.48,152c10.61-15.73,21.25-35.44,21.25-51.48A42.72,42.72,0,0,0,114,57.8Zm0,19.6a22,22,0,1,1-15.57,6.45A22,22,0,0,1,114,77.4Z" transform="translate(-29.74 -25.15)"/><path id="path881" class="cls-1" d="M295.08,102.76A25.79,25.79,0,0,1,293,113.18a22.22,22.22,0,0,1-6,8.34,30.78,30.78,0,0,1-10.3,5.52,47.46,47.46,0,0,1-14.35,2,60.45,60.45,0,0,1-9.19-.74,66.67,66.67,0,0,1-9.2-2.08,38.93,38.93,0,0,1-7.72-3.32,15,15,0,0,1-5-4.53,7.24,7.24,0,0,1-1.35-4.17,7.39,7.39,0,0,1,2.45-5.76,8.36,8.36,0,0,1,5.76-2.33,8.67,8.67,0,0,1,2.46.36,5.72,5.72,0,0,1,2.21,1,40.61,40.61,0,0,0,9.32,4.66,34.88,34.88,0,0,0,11.15,1.72,24,24,0,0,0,6.26-.73,13.77,13.77,0,0,0,4.41-2,8.78,8.78,0,0,0,2.69-2.94,7.51,7.51,0,0,0,.86-3.43,5.44,5.44,0,0,0-2.08-4.41,15,15,0,0,0-5.27-2.82,50,50,0,0,0-7.6-2.09q-4.17-1-8.58-2.21a80.34,80.34,0,0,1-8.71-2.94,29.57,29.57,0,0,1-7.48-4.41,21.42,21.42,0,0,1-5.4-6.62,22.31,22.31,0,0,1-2-9.81,22.28,22.28,0,0,1,2.08-9.57,25.27,25.27,0,0,1,6.14-8,29.69,29.69,0,0,1,9.81-5.39,40.1,40.1,0,0,1,13-2,52.27,52.27,0,0,1,7.6.61,44.37,44.37,0,0,1,8.22,1.71,38.3,38.3,0,0,1,7.23,2.82,15,15,0,0,1,5,3.93,6.48,6.48,0,0,1,1.47,4.17,7,7,0,0,1-2.82,5.76,9.4,9.4,0,0,1-5.88,2.09,8.58,8.58,0,0,1-4.42-1.23,33.47,33.47,0,0,0-9-3.56,38.53,38.53,0,0,0-9.07-1.1q-5.64,0-8.7,2.33a7,7,0,0,0-2.95,5.88,5,5,0,0,0,2,4,20.92,20.92,0,0,0,5.4,2.58c2.21.73,4.7,1.43,7.48,2.08s5.72,1.27,8.58,2.08a63,63,0,0,1,8.58,3.07,27.41,27.41,0,0,1,7.61,4.53A19.8,19.8,0,0,1,293,93.07a20.46,20.46,0,0,1,2.08,9.69Z" transform="translate(-29.74 -25.15)"/><path id="path883" class="cls-1" d="M378.27,72.1a28,28,0,0,1-1.84,10.18A23.56,23.56,0,0,1,371,90.62a26,26,0,0,1-8.58,5.76,30.28,30.28,0,0,1-11.65,2.09H330v21.21a8.4,8.4,0,0,1-2.57,6.13,8.75,8.75,0,0,1-6.25,2.45,8.37,8.37,0,0,1-8.59-8.58V55.55a9.35,9.35,0,0,1,2.82-6.87,9.55,9.55,0,0,1,7-2.94h28.45a31.36,31.36,0,0,1,11.77,2.08,23.91,23.91,0,0,1,8.58,5.77,22.23,22.23,0,0,1,5.27,8.34,28,28,0,0,1,1.84,10.17Zm-17.78,0A10.09,10.09,0,0,0,357.06,64a12.73,12.73,0,0,0-8.58-2.94H330V83.14h18.52a12.73,12.73,0,0,0,8.58-2.94A10.09,10.09,0,0,0,360.49,72.1Z" transform="translate(-29.74 -25.15)"/><path id="path885" class="cls-1" d="M476.23,86.7a45,45,0,0,1-3.18,17,39.57,39.57,0,0,1-9,13.36,40.1,40.1,0,0,1-13.49,8.83,49.16,49.16,0,0,1-34.2,0,41.54,41.54,0,0,1-13.61-8.83A40.44,40.44,0,0,1,394,103.74a44.82,44.82,0,0,1-3.19-17A43.86,43.86,0,0,1,394,69.77,38.56,38.56,0,0,1,416.4,47.58a47.43,47.43,0,0,1,34.2,0,38.79,38.79,0,0,1,13.49,8.71,39.3,39.3,0,0,1,9,13.48A44,44,0,0,1,476.23,86.7Zm-17.9,0A30,30,0,0,0,456.49,76a23.66,23.66,0,0,0-5-8.46,20.93,20.93,0,0,0-7.84-5.64,24.13,24.13,0,0,0-10.18-2.09,24.92,24.92,0,0,0-10.3,2.09,21.15,21.15,0,0,0-7.72,5.64,26.39,26.39,0,0,0-5,8.46,33.92,33.92,0,0,0,0,21.33,26.39,26.39,0,0,0,5,8.46,23.29,23.29,0,0,0,7.72,5.64,24.92,24.92,0,0,0,10.3,2.09,24.13,24.13,0,0,0,10.18-2.09,23,23,0,0,0,7.84-5.64,23.66,23.66,0,0,0,5-8.46A30,30,0,0,0,458.33,86.7Z" transform="translate(-29.74 -25.15)"/><path id="path887" class="cls-1" d="M552.38,53.47a7.3,7.3,0,0,1-2.21,5.39,7.17,7.17,0,0,1-5.27,2.21h-17v58.49a8.33,8.33,0,0,1-2.58,6.12,8.49,8.49,0,0,1-6.25,2.58,8.79,8.79,0,0,1-8.7-8.7V61.07H493.28a7.34,7.34,0,0,1-5.39-2.21,7.9,7.9,0,0,1-2.21-5.64A7.2,7.2,0,0,1,487.89,48a7.34,7.34,0,0,1,5.39-2.21H544.9a7,7,0,0,1,5.27,2.33A7.31,7.31,0,0,1,552.38,53.47Z" transform="translate(-29.74 -25.15)"/></g></svg>