<?xml version="1.0" encoding="UTF-8" standalone="no"?>
<!-- Created with Inkscape (http://www.inkscape.org/) -->

<svg
   xmlns:dc="http://purl.org/dc/elements/1.1/"
   xmlns:cc="http://creativecommons.org/ns#"
   xmlns:rdf="http://www.w3.org/1999/02/22-rdf-syntax-ns#"
   xmlns:svg="http://www.w3.org/2000/svg"
   xmlns="http://www.w3.org/2000/svg"
   xmlns:sodipodi="http://sodipodi.sourceforge.net/DTD/sodipodi-0.dtd"
   xmlns:inkscape="http://www.inkscape.org/namespaces/inkscape"
   version="1.1"
   id="svg834"
   xml:space="preserve"
   width="616.21417"
   height="157.43733"
   viewBox="0 0 616.21417 157.43734"
   sodipodi:docname="spot new.pdf"
   inkscape:version="0.92.2 5c3e80d, 2017-08-06"><metadata
     id="metadata840"><rdf:RDF><cc:Work
         rdf:about=""><dc:format>image/svg+xml</dc:format><dc:type
           rdf:resource="http://purl.org/dc/dcmitype/StillImage" /><dc:title></dc:title></cc:Work></rdf:RDF></metadata><defs
     id="defs838"><linearGradient
       x1="78.634789"
       y1="-27.802427"
       x2="88.916115"
       y2="-50.635258"
       gradientUnits="userSpaceOnUse"
       gradientTransform="matrix(-2.3979155,0,0,2.3979155,322.89342,418.17118)"
       spreadMethod="pad"
       id="linearGradient902"><stop
         style="stop-opacity:1;stop-color:#ff7525"
         offset="0"
         id="stop898" /><stop
         style="stop-opacity:1;stop-color:#ffdd55"
         offset="1"
         id="stop900" /></linearGradient><linearGradient
       x1="78.634789"
       y1="-27.802427"
       x2="88.916115"
       y2="-50.635258"
       gradientUnits="userSpaceOnUse"
       gradientTransform="matrix(2.3979155,0,0,2.3979155,-0.69219097,417.93048)"
       spreadMethod="pad"
       id="linearGradient920"><stop
         style="stop-opacity:1;stop-color:#ff7525"
         offset="0"
         id="stop916" /><stop
         style="stop-opacity:1;stop-color:#ffdd55"
         offset="1"
         id="stop918" /></linearGradient><linearGradient
       x1="67.471817"
       y1="-9.131135"
       x2="67.471817"
       y2="-44.42326"
       gradientUnits="userSpaceOnUse"
       gradientTransform="matrix(2.3979155,0,0,2.3979155,-0.69219097,417.93048)"
       spreadMethod="pad"
       id="linearGradient938"><stop
         style="stop-opacity:1;stop-color:#f6037b"
         offset="0"
         id="stop934" /><stop
         style="stop-opacity:1;stop-color:#f95ba4"
         offset="1"
         id="stop936" /></linearGradient></defs><sodipodi:namedview
     pagecolor="#ffffff"
     bordercolor="#666666"
     borderopacity="1"
     objecttolerance="10"
     gridtolerance="10"
     guidetolerance="10"
     inkscape:pageopacity="0"
     inkscape:pageshadow="2"
     inkscape:window-width="1290"
     inkscape:window-height="742"
     id="namedview836"
     showgrid="false"
     fit-margin-top="0"
     fit-margin-left="0"
     fit-margin-right="0"
     fit-margin-bottom="-0.2"
     inkscape:zoom="0.6702436"
     inkscape:cx="459.78967"
     inkscape:cy="-145.2803"
     inkscape:window-x="0"
     inkscape:window-y="0"
     inkscape:window-maximized="0"
     inkscape:current-layer="g842" /><g
     id="g842"
     inkscape:groupmode="layer"
     inkscape:label="spot new"
     transform="matrix(1.3333333,0,0,1.3333333,-129.07316,-376.52132)"><g
       id="g1093"><path
         inkscape:connector-curvature="0"
         id="path904"
         style="fill:url(#linearGradient902);stroke:none;stroke-width:0.7629838"
         d="m 130.96366,282.75206 c 6.97672,0 13.37587,2.21113 19.01737,6.57158 5.40345,4.18191 9.00397,9.50754 11.12048,13.37587 v 19.67964 c -4.51838,0 -8.85518,1.79759 -12.0498,4.9922 -3.19538,3.19538 -4.98915,7.53142 -4.98915,12.04981 0,4.52144 1.79377,8.85824 4.98915,12.05285 3.19462,3.19538 7.53142,4.9922 12.0498,4.9922 v 39.80945 c -0.97508,0 -1.91356,-0.35478 -2.64373,-0.99569 C 152.90784,390.42815 147.57,385.88 142.85781,381.86518 115.12869,358.231 96.804874,342.61958 96.804874,319.80103 c 0,-21.12168 14.684386,-37.04897 34.158786,-37.04897 z" /><path
         inkscape:connector-curvature="0"
         id="path922"
         style="fill:url(#linearGradient920);stroke:none;stroke-width:0.7629838"
         d="m 191.23938,282.51019 c -6.97749,0 -13.37663,2.2119 -19.01509,6.5754 -5.4065,4.1781 -9.00702,9.50449 -11.12278,13.37282 v 19.67964 c 4.52068,0 8.85443,1.79683 12.04981,4.9922 3.19461,3.19462 4.98915,7.53142 4.98915,12.05286 0,4.51839 -1.79454,8.85443 -4.98915,12.0498 -3.19538,3.19462 -7.52913,4.9922 -12.04981,4.9922 v 39.80945 c 0.97433,0 1.91281,-0.3548 2.64298,-0.99264 5.54994,-4.85258 10.88778,-9.40378 15.59997,-13.41784 27.72989,-23.6319 46.05294,-39.24636 46.05294,-62.06415 0,-21.12245 -14.68438,-37.04974 -34.15802,-37.04974 z" /><path
         inkscape:connector-curvature="0"
         id="path940"
         style="fill:url(#linearGradient938);stroke:none;stroke-width:0.7629838"
         d="m 161.10151,307.4239 c -17.99267,0 -32.59695,14.60123 -32.59695,32.59392 0,12.23749 8.12425,27.27361 16.22561,39.2784 8.09755,12.00479 16.1951,20.9729 16.1951,20.9729 0.0923,0.10758 0.25941,0.10758 0.35478,0 0,0 8.09755,-8.96811 16.19587,-20.9729 8.09754,-12.00479 16.21874,-27.04091 16.21874,-39.2784 0.003,-17.99269 -14.60046,-32.59392 -32.59315,-32.59392 z m 0,14.95525 c 4.45812,0 8.73236,1.77088 11.88271,4.92125 3.15037,3.15264 4.91744,7.42383 4.91744,11.88271 0,4.45887 -1.76707,8.7293 -4.91744,11.88271 -3.15035,3.15036 -7.42459,4.92048 -11.88271,4.92048 -4.45582,0 -8.73616,-1.77012 -11.88575,-4.92048 -3.15037,-3.15341 -4.92125,-7.42384 -4.92125,-11.88271 0,-4.45888 1.77088,-8.73007 4.92125,-11.88271 3.14959,-3.15037 7.42993,-4.92125 11.88575,-4.92125 z" /><path
         d="m 253.2195,392.043 c 0,1.219 -0.211,2.332 -0.633,3.336 -0.422,0.992 -1.016,1.844 -1.777,2.559 -0.747,0.699 -1.657,1.242 -2.727,1.632 -1.059,0.387 -2.219,0.582 -3.484,0.582 h -4.457 c -0.536,0 -0.997,-0.187 -1.387,-0.558 -0.375,-0.391 -0.563,-0.852 -0.563,-1.391 v -12.344 c 0,-0.539 0.188,-0.992 0.563,-1.367 0.39,-0.387 0.851,-0.582 1.387,-0.582 h 4.457 c 1.265,0 2.425,0.195 3.484,0.582 1.07,0.391 1.98,0.946 2.727,1.656 0.761,0.7 1.355,1.551 1.777,2.559 0.422,1.008 0.633,2.117 0.633,3.336 z m -3.532,0 c 0,-0.715 -0.113,-1.379 -0.339,-1.996 -0.211,-0.633 -0.528,-1.176 -0.95,-1.633 -0.421,-0.453 -0.961,-0.812 -1.609,-1.07 -0.633,-0.262 -1.363,-0.391 -2.191,-0.391 h -2.946 v 10.156 h 2.946 c 0.796,0 1.511,-0.129 2.144,-0.39 0.633,-0.278 1.168,-0.641 1.606,-1.094 0.437,-0.473 0.773,-1.016 1,-1.633 0.226,-0.617 0.339,-1.265 0.339,-1.949 z"
         style="fill:#5b5b5b;fill-opacity:1;fill-rule:nonzero;stroke:none"
         id="path846"
         inkscape:connector-curvature="0" /><path
         d="m 269.2585,398.449 c 0,0.453 -0.172,0.875 -0.512,1.266 -0.324,0.39 -0.773,0.586 -1.34,0.586 -0.375,0 -0.715,-0.098 -1.023,-0.293 -0.309,-0.211 -0.528,-0.496 -0.656,-0.852 l -0.633,-1.754 h -6.965 l -0.66,1.754 c -0.129,0.356 -0.356,0.641 -0.68,0.852 -0.309,0.195 -0.652,0.293 -1.023,0.293 -0.551,0 -1,-0.188 -1.34,-0.563 -0.324,-0.39 -0.489,-0.82 -0.489,-1.289 0,-0.261 0.043,-0.48 0.122,-0.66 l 4.75,-12.199 c 0.211,-0.551 0.562,-0.992 1.046,-1.317 0.504,-0.339 1.039,-0.511 1.61,-0.511 0.617,-0.047 1.199,0.097 1.754,0.441 0.566,0.324 0.965,0.785 1.191,1.387 l 4.727,12.199 c 0.078,0.246 0.121,0.465 0.121,0.66 z m -5.117,-4.094 -2.532,-6.988 -2.531,6.988 z"
         style="fill:#5b5b5b;fill-opacity:1;fill-rule:nonzero;stroke:none"
         id="path848"
         inkscape:connector-curvature="0" /><path
         d="m 282.0705,385.445 c 0,0.422 -0.148,0.778 -0.437,1.071 -0.293,0.293 -0.645,0.437 -1.047,0.437 h -3.387 v 11.617 c 0,0.469 -0.172,0.875 -0.512,1.219 -0.339,0.34 -0.753,0.512 -1.242,0.512 -0.468,0 -0.875,-0.172 -1.218,-0.512 -0.34,-0.344 -0.512,-0.75 -0.512,-1.219 v -11.617 h -3.383 c -0.422,0 -0.781,-0.144 -1.07,-0.437 -0.293,-0.309 -0.442,-0.684 -0.442,-1.121 0,-0.407 0.149,-0.754 0.442,-1.047 0.289,-0.293 0.648,-0.438 1.07,-0.438 h 10.254 c 0.402,0 0.754,0.152 1.047,0.461 0.289,0.293 0.437,0.652 0.437,1.074 z"
         style="fill:#5b5b5b;fill-opacity:1;fill-rule:nonzero;stroke:none"
         id="path850"
         inkscape:connector-curvature="0" /><path
         d="m 287.5985,398.594 c 0,0.472 -0.168,0.879 -0.512,1.218 -0.34,0.325 -0.754,0.489 -1.242,0.489 -0.469,0 -0.875,-0.164 -1.215,-0.489 -0.324,-0.339 -0.488,-0.746 -0.488,-1.218 v -13.125 c 0,-0.473 0.171,-0.871 0.511,-1.196 0.34,-0.339 0.754,-0.511 1.242,-0.511 0.469,0 0.868,0.172 1.192,0.511 0.344,0.325 0.512,0.723 0.512,1.196 z"
         style="fill:#5b5b5b;fill-opacity:1;fill-rule:nonzero;stroke:none"
         id="path852"
         inkscape:connector-curvature="0" /><path
         d="m 305.3405,398.203 c 0,0.277 -0.059,0.547 -0.172,0.805 -0.098,0.246 -0.242,0.465 -0.438,0.66 -0.195,0.191 -0.421,0.348 -0.683,0.461 -0.258,0.113 -0.543,0.172 -0.852,0.172 -0.324,0 -0.64,-0.074 -0.949,-0.223 -0.309,-0.16 -0.57,-0.379 -0.781,-0.656 l -7.207,-9.863 v 9.035 c 0,0.472 -0.172,0.879 -0.512,1.218 -0.34,0.325 -0.754,0.489 -1.242,0.489 -0.469,0 -0.875,-0.164 -1.219,-0.489 -0.324,-0.339 -0.484,-0.746 -0.484,-1.218 V 385.98 c 0,-0.292 0.054,-0.57 0.168,-0.828 0.113,-0.261 0.269,-0.496 0.465,-0.707 0.21,-0.211 0.453,-0.375 0.73,-0.488 0.277,-0.129 0.574,-0.195 0.902,-0.195 0.371,0 0.719,0.082 1.047,0.246 0.34,0.16 0.625,0.398 0.852,0.707 l 6.914,9.398 v -8.644 c 0,-0.473 0.172,-0.871 0.512,-1.196 0.343,-0.339 0.757,-0.511 1.242,-0.511 0.472,0 0.871,0.172 1.195,0.511 0.34,0.325 0.512,0.723 0.512,1.196 z"
         style="fill:#5b5b5b;fill-opacity:1;fill-rule:nonzero;stroke:none"
         id="path854"
         inkscape:connector-curvature="0" /><path
         d="m 323.3245,395.867 c 0,0.731 -0.211,1.387 -0.633,1.973 -0.406,0.566 -0.941,1.047 -1.609,1.437 -0.648,0.391 -1.387,0.68 -2.215,0.875 -0.812,0.211 -1.633,0.317 -2.461,0.317 -1.183,0 -2.304,-0.196 -3.359,-0.582 -1.039,-0.407 -1.957,-0.977 -2.754,-1.707 -0.777,-0.731 -1.395,-1.614 -1.848,-2.653 -0.457,-1.039 -0.683,-2.203 -0.683,-3.484 0,-1.281 0.226,-2.441 0.683,-3.481 0.453,-1.039 1.071,-1.925 1.848,-2.656 0.797,-0.73 1.715,-1.289 2.754,-1.679 1.055,-0.391 2.176,-0.586 3.359,-0.586 1.317,0 2.446,0.226 3.387,0.683 0.957,0.453 1.754,1.024 2.387,1.703 0.129,0.149 0.226,0.317 0.293,0.512 0.078,0.18 0.121,0.359 0.121,0.535 0,0.422 -0.172,0.789 -0.512,1.098 -0.324,0.308 -0.699,0.461 -1.121,0.461 -0.453,0 -0.844,-0.16 -1.168,-0.485 -0.473,-0.457 -1,-0.804 -1.582,-1.046 -0.586,-0.262 -1.188,-0.391 -1.805,-0.391 -0.73,0 -1.41,0.137 -2.043,0.414 -0.617,0.258 -1.152,0.633 -1.609,1.121 -0.453,0.469 -0.813,1.027 -1.07,1.68 -0.243,0.648 -0.368,1.355 -0.368,2.117 0,0.762 0.125,1.477 0.368,2.145 0.257,0.648 0.617,1.207 1.07,1.679 0.457,0.469 0.992,0.844 1.609,1.121 0.633,0.258 1.313,0.387 2.043,0.387 0.36,0 0.707,-0.031 1.047,-0.094 0.344,-0.082 0.668,-0.179 0.977,-0.293 0.308,-0.113 0.582,-0.246 0.828,-0.39 0.242,-0.164 0.445,-0.317 0.609,-0.465 v -1.945 h -2.949 c -0.422,0 -0.777,-0.149 -1.07,-0.438 -0.278,-0.293 -0.414,-0.66 -0.414,-1.098 0,-0.422 0.136,-0.769 0.414,-1.047 0.293,-0.293 0.648,-0.437 1.07,-0.437 h 4.457 c 0.535,0 0.992,0.195 1.363,0.582 0.391,0.375 0.586,0.828 0.586,1.363 z"
         style="fill:#5b5b5b;fill-opacity:1;fill-rule:nonzero;stroke:none"
         id="path856"
         inkscape:connector-curvature="0" /><path
         d="m 347.3525,392.043 c 0,1.219 -0.215,2.332 -0.637,3.336 -0.422,0.992 -1.012,1.844 -1.778,2.559 -0.746,0.699 -1.656,1.242 -2.726,1.632 -1.055,0.387 -2.215,0.582 -3.481,0.582 h -4.457 c -0.539,0 -1,-0.187 -1.39,-0.558 -0.371,-0.391 -0.559,-0.852 -0.559,-1.391 v -12.344 c 0,-0.539 0.188,-0.992 0.559,-1.367 0.39,-0.387 0.851,-0.582 1.39,-0.582 h 4.457 c 1.266,0 2.426,0.195 3.481,0.582 1.07,0.391 1.98,0.946 2.726,1.656 0.766,0.7 1.356,1.551 1.778,2.559 0.422,1.008 0.637,2.117 0.637,3.336 z m -3.532,0 c 0,-0.715 -0.117,-1.379 -0.343,-1.996 -0.211,-0.633 -0.528,-1.176 -0.95,-1.633 -0.422,-0.453 -0.957,-0.812 -1.605,-1.07 -0.633,-0.262 -1.363,-0.391 -2.192,-0.391 h -2.949 v 10.156 h 2.949 c 0.793,0 1.508,-0.129 2.141,-0.39 0.633,-0.278 1.168,-0.641 1.609,-1.094 0.438,-0.473 0.77,-1.016 0.997,-1.633 0.226,-0.617 0.343,-1.265 0.343,-1.949 z"
         style="fill:#5b5b5b;fill-opacity:1;fill-rule:nonzero;stroke:none"
         id="path858"
         inkscape:connector-curvature="0" /><path
         d="m 366.0235,392.043 c 0,1.219 -0.211,2.348 -0.632,3.387 -0.422,1.023 -1.016,1.906 -1.778,2.652 -0.75,0.746 -1.64,1.332 -2.679,1.754 -1.04,0.406 -2.176,0.609 -3.411,0.609 -1.218,0 -2.347,-0.203 -3.386,-0.609 -1.039,-0.422 -1.938,-1.008 -2.703,-1.754 -0.747,-0.746 -1.329,-1.629 -1.754,-2.652 -0.422,-1.039 -0.633,-2.168 -0.633,-3.387 0,-1.219 0.211,-2.336 0.633,-3.359 0.425,-1.039 1.007,-1.934 1.754,-2.68 0.765,-0.746 1.664,-1.324 2.703,-1.731 1.039,-0.421 2.168,-0.632 3.386,-0.632 1.235,0 2.371,0.211 3.411,0.632 1.039,0.407 1.929,0.985 2.679,1.731 0.762,0.746 1.356,1.641 1.778,2.68 0.421,1.023 0.632,2.14 0.632,3.359 z m -3.554,0 c 0,-0.762 -0.125,-1.469 -0.367,-2.117 -0.227,-0.653 -0.559,-1.211 -1,-1.68 -0.422,-0.488 -0.942,-0.863 -1.559,-1.121 -0.598,-0.277 -1.273,-0.414 -2.02,-0.414 -0.746,0 -1.429,0.137 -2.046,0.414 -0.602,0.258 -1.11,0.633 -1.536,1.121 -0.421,0.469 -0.754,1.027 -0.996,1.68 -0.226,0.648 -0.34,1.355 -0.34,2.117 0,0.762 0.114,1.469 0.34,2.121 0.242,0.648 0.575,1.207 0.996,1.68 0.426,0.468 0.934,0.844 1.536,1.117 0.617,0.277 1.3,0.414 2.046,0.414 0.747,0 1.422,-0.137 2.02,-0.414 0.617,-0.273 1.137,-0.649 1.559,-1.117 0.441,-0.473 0.773,-1.032 1,-1.68 0.242,-0.652 0.367,-1.359 0.367,-2.121 z"
         style="fill:#5b5b5b;fill-opacity:1;fill-rule:nonzero;stroke:none"
         id="path860"
         inkscape:connector-curvature="0" /><path
         d="m 383.0125,398.203 c 0,0.277 -0.059,0.547 -0.172,0.805 -0.098,0.246 -0.242,0.465 -0.438,0.66 -0.195,0.191 -0.422,0.348 -0.679,0.461 -0.262,0.113 -0.547,0.172 -0.856,0.172 -0.324,0 -0.64,-0.074 -0.949,-0.223 -0.309,-0.16 -0.566,-0.379 -0.777,-0.656 l -7.211,-9.863 v 9.035 c 0,0.472 -0.168,0.879 -0.512,1.218 -0.34,0.325 -0.754,0.489 -1.238,0.489 -0.473,0 -0.879,-0.164 -1.219,-0.489 -0.324,-0.339 -0.488,-0.746 -0.488,-1.218 V 385.98 c 0,-0.292 0.058,-0.57 0.171,-0.828 0.114,-0.261 0.266,-0.496 0.461,-0.707 0.211,-0.211 0.457,-0.375 0.731,-0.488 0.277,-0.129 0.578,-0.195 0.902,-0.195 0.371,0 0.723,0.082 1.047,0.246 0.34,0.16 0.625,0.398 0.852,0.707 l 6.918,9.398 v -8.644 c 0,-0.473 0.168,-0.871 0.511,-1.196 0.34,-0.339 0.754,-0.511 1.243,-0.511 0.468,0 0.867,0.172 1.191,0.511 0.34,0.325 0.512,0.723 0.512,1.196 z"
         style="fill:#5b5b5b;fill-opacity:1;fill-rule:nonzero;stroke:none"
         id="path862"
         inkscape:connector-curvature="0" /><path
         d="m 397.8555,398.594 c 0,0.437 -0.144,0.812 -0.437,1.121 -0.293,0.293 -0.641,0.437 -1.047,0.437 h -8.207 c -0.535,0 -1,-0.187 -1.391,-0.558 -0.371,-0.391 -0.558,-0.852 -0.558,-1.391 v -12.344 c 0,-0.539 0.187,-0.992 0.558,-1.367 0.391,-0.387 0.856,-0.582 1.391,-0.582 h 8.207 c 0.406,0 0.754,0.152 1.047,0.461 0.293,0.293 0.437,0.652 0.437,1.074 0,0.422 -0.144,0.778 -0.437,1.071 -0.293,0.293 -0.641,0.437 -1.047,0.437 h -6.699 v 3.434 h 6.527 c 0.406,0 0.754,0.156 1.047,0.465 0.293,0.289 0.438,0.648 0.438,1.07 0,0.422 -0.145,0.777 -0.438,1.07 -0.293,0.293 -0.641,0.438 -1.047,0.438 h -6.527 v 3.679 h 6.699 c 0.406,0 0.754,0.145 1.047,0.438 0.293,0.293 0.437,0.641 0.437,1.047 z"
         style="fill:#5b5b5b;fill-opacity:1;fill-rule:nonzero;stroke:none"
         id="path864"
         inkscape:connector-curvature="0" /><path
         d="m 421.6955,392.043 c 0,1.219 -0.215,2.332 -0.636,3.336 -0.422,0.992 -1.012,1.844 -1.778,2.559 -0.746,0.699 -1.656,1.242 -2.726,1.632 -1.055,0.387 -2.215,0.582 -3.481,0.582 h -4.457 c -0.539,0 -1,-0.187 -1.39,-0.558 -0.372,-0.391 -0.559,-0.852 -0.559,-1.391 v -12.344 c 0,-0.539 0.187,-0.992 0.559,-1.367 0.39,-0.387 0.851,-0.582 1.39,-0.582 h 4.457 c 1.266,0 2.426,0.195 3.481,0.582 1.07,0.391 1.98,0.946 2.726,1.656 0.766,0.7 1.356,1.551 1.778,2.559 0.421,1.008 0.636,2.117 0.636,3.336 z m -3.531,0 c 0,-0.715 -0.117,-1.379 -0.344,-1.996 -0.211,-0.633 -0.527,-1.176 -0.949,-1.633 -0.422,-0.453 -0.957,-0.812 -1.605,-1.07 -0.633,-0.262 -1.368,-0.391 -2.192,-0.391 h -2.949 v 10.156 h 2.949 c 0.793,0 1.508,-0.129 2.141,-0.39 0.633,-0.278 1.168,-0.641 1.609,-1.094 0.438,-0.473 0.77,-1.016 0.996,-1.633 0.227,-0.617 0.344,-1.265 0.344,-1.949 z"
         style="fill:#5b5b5b;fill-opacity:1;fill-rule:nonzero;stroke:none"
         id="path866"
         inkscape:connector-curvature="0" /><path
         d="m 427.6295,398.594 c 0,0.472 -0.168,0.879 -0.512,1.218 -0.34,0.325 -0.754,0.489 -1.242,0.489 -0.469,0 -0.875,-0.164 -1.215,-0.489 -0.328,-0.339 -0.488,-0.746 -0.488,-1.218 v -13.125 c 0,-0.473 0.168,-0.871 0.512,-1.196 0.339,-0.339 0.753,-0.511 1.242,-0.511 0.468,0 0.867,0.172 1.191,0.511 0.344,0.325 0.512,0.723 0.512,1.196 z"
         style="fill:#5b5b5b;fill-opacity:1;fill-rule:nonzero;stroke:none"
         id="path868"
         inkscape:connector-curvature="0" /><path
         d="m 442.4735,385.445 c 0,0.422 -0.149,0.778 -0.442,1.071 -0.289,0.293 -0.64,0.437 -1.047,0.437 h -6.695 v 3.434 h 6.527 c 0.407,0 0.754,0.156 1.047,0.465 0.293,0.289 0.438,0.648 0.438,1.07 0,0.422 -0.145,0.777 -0.438,1.07 -0.293,0.293 -0.64,0.438 -1.047,0.438 h -6.527 v 5.164 c 0,0.472 -0.172,0.879 -0.512,1.218 -0.34,0.325 -0.754,0.489 -1.242,0.489 -0.473,0 -0.875,-0.164 -1.219,-0.489 -0.324,-0.339 -0.484,-0.746 -0.484,-1.218 v -12.735 c 0,-0.539 0.184,-0.992 0.559,-1.367 0.39,-0.387 0.851,-0.582 1.386,-0.582 h 8.207 c 0.407,0 0.758,0.152 1.047,0.461 0.293,0.293 0.442,0.652 0.442,1.074 z"
         style="fill:#5b5b5b;fill-opacity:1;fill-rule:nonzero;stroke:none"
         id="path870"
         inkscape:connector-curvature="0" /><path
         d="m 456.3595,385.445 c 0,0.422 -0.144,0.778 -0.437,1.071 -0.293,0.293 -0.641,0.437 -1.047,0.437 h -6.699 v 3.434 h 6.527 c 0.406,0 0.758,0.156 1.047,0.465 0.293,0.289 0.441,0.648 0.441,1.07 0,0.422 -0.148,0.777 -0.441,1.07 -0.289,0.293 -0.641,0.438 -1.047,0.438 h -6.527 v 5.164 c 0,0.472 -0.168,0.879 -0.508,1.218 -0.344,0.325 -0.758,0.489 -1.242,0.489 -0.473,0 -0.879,-0.164 -1.219,-0.489 -0.324,-0.339 -0.488,-0.746 -0.488,-1.218 v -12.735 c 0,-0.539 0.187,-0.992 0.562,-1.367 0.387,-0.387 0.852,-0.582 1.387,-0.582 h 8.207 c 0.406,0 0.754,0.152 1.047,0.461 0.293,0.293 0.437,0.652 0.437,1.074 z"
         style="fill:#5b5b5b;fill-opacity:1;fill-rule:nonzero;stroke:none"
         id="path872"
         inkscape:connector-curvature="0" /><path
         d="m 470.2505,398.594 c 0,0.437 -0.148,0.812 -0.438,1.121 -0.292,0.293 -0.644,0.437 -1.05,0.437 h -8.207 c -0.535,0 -0.996,-0.187 -1.387,-0.558 -0.375,-0.391 -0.559,-0.852 -0.559,-1.391 v -12.344 c 0,-0.539 0.184,-0.992 0.559,-1.367 0.391,-0.387 0.852,-0.582 1.387,-0.582 h 8.207 c 0.406,0 0.758,0.152 1.05,0.461 0.29,0.293 0.438,0.652 0.438,1.074 0,0.422 -0.148,0.778 -0.438,1.071 -0.292,0.293 -0.644,0.437 -1.05,0.437 h -6.696 v 3.434 h 6.528 c 0.406,0 0.754,0.156 1.047,0.465 0.293,0.289 0.437,0.648 0.437,1.07 0,0.422 -0.144,0.777 -0.437,1.07 -0.293,0.293 -0.641,0.438 -1.047,0.438 h -6.528 v 3.679 h 6.696 c 0.406,0 0.758,0.145 1.05,0.438 0.29,0.293 0.438,0.641 0.438,1.047 z"
         style="fill:#5b5b5b;fill-opacity:1;fill-rule:nonzero;stroke:none"
         id="path874"
         inkscape:connector-curvature="0" /><path
         d="m 485.8835,389.145 c 0,0.714 -0.106,1.347 -0.317,1.902 -0.195,0.551 -0.461,1.027 -0.804,1.433 -0.34,0.391 -0.723,0.715 -1.145,0.977 -0.422,0.242 -0.851,0.414 -1.289,0.512 l 2.238,3.797 c 0.149,0.277 0.223,0.554 0.223,0.828 0,0.422 -0.156,0.812 -0.465,1.168 -0.308,0.359 -0.722,0.539 -1.242,0.539 -0.309,0 -0.594,-0.074 -0.852,-0.223 -0.261,-0.16 -0.472,-0.379 -0.632,-0.656 l -2.778,-5.039 h -2.531 v 4.211 c 0,0.472 -0.172,0.879 -0.512,1.218 -0.34,0.325 -0.754,0.489 -1.242,0.489 -0.473,0 -0.879,-0.164 -1.219,-0.489 -0.324,-0.339 -0.488,-0.746 -0.488,-1.218 v -12.735 c 0,-0.539 0.188,-0.992 0.563,-1.367 0.39,-0.387 0.851,-0.582 1.386,-0.582 h 5.653 c 0.843,0 1.597,0.129 2.261,0.391 0.684,0.258 1.262,0.625 1.731,1.094 0.472,0.472 0.828,1.031 1.07,1.679 0.262,0.633 0.391,1.324 0.391,2.071 z m -5.965,-2.192 h -3.629 v 4.383 h 3.629 c 0.695,0 1.273,-0.195 1.726,-0.582 0.473,-0.391 0.708,-0.926 0.708,-1.609 0,-0.68 -0.235,-1.215 -0.708,-1.606 -0.453,-0.391 -1.031,-0.586 -1.726,-0.586 z"
         style="fill:#5b5b5b;fill-opacity:1;fill-rule:nonzero;stroke:none"
         id="path876"
         inkscape:connector-curvature="0" /><path
         d="m 500.1215,398.594 c 0,0.437 -0.148,0.812 -0.441,1.121 -0.289,0.293 -0.641,0.437 -1.047,0.437 h -8.207 c -0.535,0 -0.996,-0.187 -1.387,-0.558 -0.375,-0.391 -0.559,-0.852 -0.559,-1.391 v -12.344 c 0,-0.539 0.184,-0.992 0.559,-1.367 0.391,-0.387 0.852,-0.582 1.387,-0.582 h 8.207 c 0.406,0 0.758,0.152 1.047,0.461 0.293,0.293 0.441,0.652 0.441,1.074 0,0.422 -0.148,0.778 -0.441,1.071 -0.289,0.293 -0.641,0.437 -1.047,0.437 h -6.696 v 3.434 h 6.528 c 0.406,0 0.754,0.156 1.047,0.465 0.293,0.289 0.437,0.648 0.437,1.07 0,0.422 -0.144,0.777 -0.437,1.07 -0.293,0.293 -0.641,0.438 -1.047,0.438 h -6.528 v 3.679 h 6.696 c 0.406,0 0.758,0.145 1.047,0.438 0.293,0.293 0.441,0.641 0.441,1.047 z"
         style="fill:#5b5b5b;fill-opacity:1;fill-rule:nonzero;stroke:none"
         id="path878"
         inkscape:connector-curvature="0" /><path
         d="m 517.2385,398.203 c 0,0.277 -0.054,0.547 -0.168,0.805 -0.097,0.246 -0.246,0.465 -0.437,0.66 -0.196,0.191 -0.426,0.348 -0.684,0.461 -0.262,0.113 -0.543,0.172 -0.851,0.172 -0.325,0 -0.641,-0.074 -0.95,-0.223 -0.308,-0.16 -0.57,-0.379 -0.781,-0.656 l -7.207,-9.863 v 9.035 c 0,0.472 -0.172,0.879 -0.512,1.218 -0.339,0.325 -0.754,0.489 -1.242,0.489 -0.472,0 -0.879,-0.164 -1.219,-0.489 -0.324,-0.339 -0.488,-0.746 -0.488,-1.218 V 385.98 c 0,-0.292 0.059,-0.57 0.172,-0.828 0.113,-0.261 0.27,-0.496 0.461,-0.707 0.215,-0.211 0.457,-0.375 0.734,-0.488 0.274,-0.129 0.575,-0.195 0.899,-0.195 0.375,0 0.722,0.082 1.047,0.246 0.343,0.16 0.625,0.398 0.851,0.707 l 6.918,9.398 v -8.644 c 0,-0.473 0.172,-0.871 0.512,-1.196 0.34,-0.339 0.754,-0.511 1.242,-0.511 0.469,0 0.867,0.172 1.192,0.511 0.343,0.325 0.511,0.723 0.511,1.196 z"
         style="fill:#5b5b5b;fill-opacity:1;fill-rule:nonzero;stroke:none"
         id="path880"
         inkscape:connector-curvature="0" /><path
         d="m 532.5475,385.445 c 0,0.422 -0.149,0.778 -0.438,1.071 -0.293,0.293 -0.644,0.437 -1.05,0.437 h -3.383 v 11.617 c 0,0.469 -0.172,0.875 -0.512,1.219 -0.34,0.34 -0.754,0.512 -1.242,0.512 -0.473,0 -0.875,-0.172 -1.219,-0.512 -0.34,-0.344 -0.512,-0.75 -0.512,-1.219 v -11.617 h -3.382 c -0.422,0 -0.782,-0.144 -1.075,-0.437 -0.289,-0.309 -0.437,-0.684 -0.437,-1.121 0,-0.407 0.148,-0.754 0.437,-1.047 0.293,-0.293 0.653,-0.438 1.075,-0.438 h 10.25 c 0.406,0 0.757,0.152 1.05,0.461 0.289,0.293 0.438,0.652 0.438,1.074 z"
         style="fill:#5b5b5b;fill-opacity:1;fill-rule:nonzero;stroke:none"
         id="path882"
         inkscape:connector-curvature="0" /><path
         d="m 545.0905,398.594 c 0,0.437 -0.149,0.812 -0.442,1.121 -0.289,0.293 -0.64,0.437 -1.046,0.437 h -7.036 c -0.539,0 -1,-0.187 -1.39,-0.558 -0.371,-0.391 -0.559,-0.852 -0.559,-1.391 v -12.734 c 0,-0.473 0.172,-0.871 0.512,-1.196 0.34,-0.339 0.754,-0.511 1.242,-0.511 0.469,0 0.867,0.172 1.191,0.511 0.344,0.325 0.512,0.723 0.512,1.196 v 11.64 h 5.528 c 0.406,0 0.757,0.145 1.046,0.438 0.293,0.293 0.442,0.641 0.442,1.047 z"
         style="fill:#5b5b5b;fill-opacity:1;fill-rule:nonzero;stroke:none"
         id="path884"
         inkscape:connector-curvature="0" /><path
         d="m 557.2035,385.371 c 0,0.309 -0.082,0.594 -0.242,0.852 l -4.699,7.281 v 5.09 c 0,0.472 -0.172,0.879 -0.512,1.218 -0.344,0.325 -0.758,0.489 -1.242,0.489 -0.473,0 -0.879,-0.164 -1.219,-0.489 -0.324,-0.339 -0.488,-0.746 -0.488,-1.218 v -5.09 l -4.746,-7.305 c -0.164,-0.226 -0.246,-0.504 -0.246,-0.828 0,-0.391 0.156,-0.746 0.464,-1.07 0.309,-0.344 0.707,-0.512 1.192,-0.512 0.277,0 0.535,0.063 0.781,0.195 0.258,0.129 0.469,0.325 0.633,0.582 l 3.652,5.872 3.578,-5.848 c 0.164,-0.258 0.368,-0.453 0.61,-0.582 0.261,-0.149 0.535,-0.219 0.828,-0.219 0.504,0 0.902,0.16 1.195,0.484 0.309,0.325 0.461,0.692 0.461,1.098 z"
         style="fill:#5b5b5b;fill-opacity:1;fill-rule:nonzero;stroke:none"
         id="path886"
         inkscape:connector-curvature="0" /><path
         d="m 301.6645,340.758 c 0,3.758 -0.695,7.234 -2.082,10.422 -1.309,3.187 -3.312,5.965 -6.008,8.336 -2.699,2.289 -6.133,4.129 -10.301,5.519 -4.086,1.305 -8.871,1.961 -14.347,1.961 -2.942,0 -6.008,-0.246 -9.196,-0.734 -3.187,-0.492 -6.253,-1.188 -9.195,-2.086 -2.859,-0.899 -5.437,-2.004 -7.726,-3.313 -2.207,-1.304 -3.883,-2.816 -5.024,-4.535 -0.902,-1.308 -1.351,-2.699 -1.351,-4.168 0,-2.371 0.82,-4.293 2.453,-5.762 1.715,-1.554 3.636,-2.332 5.761,-2.332 0.821,0 1.637,0.125 2.454,0.368 0.816,0.164 1.554,0.492 2.207,0.98 2.781,1.883 5.886,3.434 9.32,4.66 3.433,1.145 7.152,1.719 11.156,1.719 2.371,0 4.457,-0.246 6.254,-0.738 1.797,-0.489 3.27,-1.145 4.414,-1.961 1.227,-0.899 2.125,-1.879 2.695,-2.942 0.575,-1.144 0.86,-2.289 0.86,-3.433 0,-1.801 -0.696,-3.27 -2.082,-4.414 -1.309,-1.145 -3.067,-2.086 -5.274,-2.821 -2.207,-0.816 -4.742,-1.511 -7.601,-2.086 -2.781,-0.652 -5.641,-1.386 -8.582,-2.207 -2.946,-0.816 -5.848,-1.796 -8.707,-2.941 -2.782,-1.145 -5.274,-2.617 -7.481,-4.414 -2.207,-1.797 -4.004,-4.004 -5.394,-6.621 -1.309,-2.699 -1.961,-5.969 -1.961,-9.809 0,-3.433 0.695,-6.621 2.082,-9.566 1.472,-3.024 3.515,-5.68 6.133,-7.969 2.695,-2.289 5.964,-4.086 9.808,-5.394 3.844,-1.309 8.176,-1.961 12.996,-1.961 2.289,0 4.825,0.203 7.602,0.613 2.863,0.324 5.601,0.898 8.215,1.715 2.617,0.738 5.027,1.676 7.234,2.82 2.207,1.145 3.883,2.453 5.027,3.926 0.981,1.222 1.473,2.613 1.473,4.168 0,2.371 -0.941,4.289 -2.82,5.762 -1.797,1.39 -3.762,2.085 -5.887,2.085 -1.551,0 -3.023,-0.41 -4.414,-1.226 -2.859,-1.637 -5.844,-2.82 -8.949,-3.555 -3.024,-0.738 -6.051,-1.105 -9.074,-1.105 -3.758,0 -6.661,0.777 -8.704,2.328 -1.964,1.473 -2.945,3.433 -2.945,5.887 0,1.636 0.656,2.984 1.961,4.046 1.391,0.981 3.191,1.84 5.398,2.575 2.208,0.734 4.7,1.429 7.477,2.086 2.863,0.57 5.723,1.265 8.586,2.082 2.941,0.82 5.801,1.839 8.582,3.066 2.859,1.145 5.395,2.656 7.602,4.535 2.207,1.801 3.964,4.047 5.273,6.746 1.387,2.618 2.082,5.844 2.082,9.688 z"
         style="fill:#5b5b5b;fill-opacity:1;fill-rule:nonzero;stroke:none"
         id="path942"
         inkscape:connector-curvature="0" /><path
         d="m 384.8555,310.102 c 0,3.597 -0.613,6.992 -1.839,10.179 -1.223,3.188 -3.024,5.965 -5.395,8.336 -2.289,2.371 -5.148,4.293 -8.582,5.762 -3.352,1.391 -7.234,2.086 -11.648,2.086 h -20.844 v 21.211 c 0,2.371 -0.86,4.414 -2.574,6.133 -1.719,1.632 -3.801,2.453 -6.254,2.453 -2.371,0 -4.414,-0.821 -6.133,-2.453 -1.633,-1.719 -2.449,-3.762 -2.449,-6.133 v -64.125 c 0,-2.699 0.937,-4.989 2.82,-6.867 1.961,-1.961 4.289,-2.942 6.988,-2.942 h 28.446 c 4.414,0 8.339,0.696 11.769,2.082 3.434,1.391 6.297,3.313 8.586,5.766 2.371,2.367 4.125,5.148 5.27,8.336 1.226,3.187 1.839,6.582 1.839,10.176 z m -17.777,0 c 0,-3.434 -1.144,-6.129 -3.434,-8.09 -2.289,-1.965 -5.148,-2.946 -8.582,-2.946 h -18.515 v 22.071 h 18.515 c 3.434,0 6.293,-0.981 8.582,-2.942 2.29,-1.961 3.434,-4.66 3.434,-8.093 z"
         style="fill:#5b5b5b;fill-opacity:1;fill-rule:nonzero;stroke:none"
         id="path944"
         inkscape:connector-curvature="0" /><path
         d="m 482.8165,324.695 c 0,6.129 -1.062,11.809 -3.187,17.043 -2.125,5.149 -5.109,9.606 -8.953,13.364 -3.758,3.761 -8.254,6.703 -13.489,8.828 -5.23,2.043 -10.953,3.066 -17.164,3.066 -6.132,0 -11.812,-1.023 -17.043,-3.066 -5.23,-2.125 -9.769,-5.067 -13.609,-8.828 -3.762,-3.758 -6.703,-8.215 -8.828,-13.364 -2.125,-5.234 -3.188,-10.914 -3.188,-17.043 0,-6.133 1.063,-11.773 3.188,-16.922 2.125,-5.23 5.066,-9.726 8.828,-13.488 3.84,-3.758 8.379,-6.66 13.609,-8.703 5.231,-2.129 10.911,-3.191 17.043,-3.191 6.211,0 11.934,1.062 17.164,3.191 5.235,2.043 9.731,4.945 13.489,8.703 3.844,3.762 6.828,8.258 8.953,13.488 2.125,5.149 3.187,10.789 3.187,16.922 z m -17.902,0 c 0,-3.843 -0.613,-7.398 -1.84,-10.668 -1.144,-3.269 -2.82,-6.089 -5.027,-8.461 -2.125,-2.453 -4.742,-4.332 -7.848,-5.64 -3.023,-1.391 -6.414,-2.086 -10.176,-2.086 -3.761,0 -7.195,0.695 -10.3,2.086 -3.024,1.308 -5.598,3.187 -7.723,5.64 -2.125,2.372 -3.801,5.192 -5.027,8.461 -1.145,3.27 -1.719,6.825 -1.719,10.668 0,3.84 0.574,7.395 1.719,10.668 1.226,3.27 2.902,6.09 5.027,8.457 2.125,2.371 4.699,4.254 7.723,5.641 3.105,1.391 6.539,2.086 10.3,2.086 3.762,0 7.153,-0.695 10.176,-2.086 3.106,-1.387 5.723,-3.27 7.848,-5.641 2.207,-2.367 3.883,-5.187 5.027,-8.457 1.227,-3.273 1.84,-6.828 1.84,-10.668 z"
         style="fill:#5b5b5b;fill-opacity:1;fill-rule:nonzero;stroke:none"
         id="path946"
         inkscape:connector-curvature="0" /><path
         d="m 558.9655,291.465 c 0,2.125 -0.735,3.926 -2.207,5.394 -1.469,1.473 -3.227,2.207 -5.27,2.207 h -17.047 v 58.489 c 0,2.371 -0.855,4.414 -2.574,6.129 -1.715,1.718 -3.801,2.578 -6.254,2.578 -2.367,0 -4.414,-0.86 -6.129,-2.578 -1.714,-1.715 -2.574,-3.758 -2.574,-6.129 v -58.489 h -17.043 c -2.125,0 -3.926,-0.734 -5.394,-2.207 -1.473,-1.55 -2.207,-3.433 -2.207,-5.64 0,-2.043 0.734,-3.801 2.207,-5.27 1.468,-1.472 3.269,-2.207 5.394,-2.207 h 51.621 c 2.043,0 3.801,0.778 5.27,2.328 1.472,1.473 2.207,3.27 2.207,5.395 z"
         style="fill:#5b5b5b;fill-opacity:1;fill-rule:nonzero;stroke:none"
         id="path948"
         inkscape:connector-curvature="0" /></g></g></svg>